<?xml version="1.0" encoding="utf-8"?>
<!-- Generator: Adobe Illustrator 23.0.3, SVG Export Plug-In . SVG Version: 6.00 Build 0)  -->
<svg version="1.1" id="图层_1" xmlns="http://www.w3.org/2000/svg" xmlns:xlink="http://www.w3.org/1999/xlink" x="0px" y="0px"
	 viewBox="0 0 600 600" enable-background="new 0 0 600 600" xml:space="preserve">
<g>
	<path fill-rule="evenodd" clip-rule="evenodd" fill="#B1B2FF" d="M199,452.8c0,0-23.2-13.4-46.6-0.2c0,0-10.5,10.4,0.8,18.4
		c0,0,6.7,4.5,14.1-3C167.4,467.9,186.6,447.9,199,452.8L199,452.8z"/>
	<path fill-rule="evenodd" clip-rule="evenodd" fill="#B1B2FF" d="M122.9,435.6c0,0-26.7-2.7-42.6,18.8c0,0-5.3,13.8,8.3,16.5
		c0,0,7.9,1.4,11.6-8.5C100.2,462.4,109.6,436.2,122.9,435.6L122.9,435.6z"/>
	<path fill-rule="evenodd" clip-rule="evenodd" fill="#B1B2FF" d="M83.4,435.5c0,0-26.8-1.7-41.9,20.4c0,0-4.8,14,8.9,16.2
		c0,0,8,1.1,11.3-9C61.7,463.1,70.1,436.6,83.4,435.5L83.4,435.5z"/>
	<path fill-rule="evenodd" clip-rule="evenodd" fill="#B1B2FF" d="M70.2,435.7c0,0-18.2,7.3-33.8-4.7c0,0-6.5-8.6,2.5-13.3
		c0,0,5.3-2.6,9.9,3.7C48.8,421.5,60.7,438,70.2,435.7L70.2,435.7z"/>
	<path fill-rule="evenodd" clip-rule="evenodd" fill="#B1B2FF" d="M171,444.5c0,0-17.8-1.5-25.6-17.5c0,0-1.8-9.7,7.4-9.8
		c0,0,5.4,0.1,6.6,7C159.4,424.1,162.3,442.4,171,444.5L171,444.5z"/>
	<path fill-rule="evenodd" clip-rule="evenodd" fill="#B1B2FF" d="M154.7,441.6c0,0-20.4-3.8-34,11.7c0,0-5,10.3,5.3,13.2
		c0,0,6,1.6,9.5-5.8C135.5,460.7,144.4,441.2,154.7,441.6L154.7,441.6z"/>
	<path fill-rule="evenodd" clip-rule="evenodd" fill="#B1B2FF" d="M180.2,445.8c0,0-18.5-17.4-13.4-28.5c0,0,5.4-8.3,12.5-4.7
		c0,0,6.4,3.5,7.7,11.9c0,0-7.4,8.7,6.5,26.8C193.5,451.3,186.7,450.5,180.2,445.8L180.2,445.8z"/>
	<path fill-rule="evenodd" clip-rule="evenodd" fill="#B1B2FF" d="M102.7,432.3c0,0-25.3-14.9-22.2-28.8c0,0,4-10.7,13-8.4
		c0,0,8,2.3,11.6,11.5c0,0-6.1,11.7,14.1,28.5C119.1,435.2,111.2,436,102.7,432.3L102.7,432.3z"/>
	<path fill-rule="evenodd" clip-rule="evenodd" fill="#B1B2FF" d="M78.2,433.4c0,0-27.1-11.2-26-25.4c0,0,2.4-11.2,11.7-10.1
		c0,0,8.3,1.2,13.1,9.8c0,0-4.5,12.4,17.9,26.3C94.8,433.9,87.1,435.8,78.2,433.4L78.2,433.4z"/>
	<path fill-rule="evenodd" clip-rule="evenodd" fill="#B1B2FF" d="M137.7,437.4c0,0-19.7-11.1-17.6-21.9c0,0,2.9-8.4,9.9-6.7
		c0,0,6.2,1.7,9.2,8.7c0,0-4.5,9.1,11.3,21.8C150.4,439.3,144.4,440.1,137.7,437.4L137.7,437.4z"/>
	<path fill-rule="evenodd" clip-rule="evenodd" fill="#B1B2FF" d="M53.5,439.2c-5.3,1.8,60.8-23.5,164.9,21.7
		C211.7,462.8,145.9,424.4,53.5,439.2L53.5,439.2z"/>
	<path fill-rule="evenodd" clip-rule="evenodd" fill="#B1B2FF" d="M58.4,438.6c0,0-24-0.5-33,2.9c-4.5,1.7-6.9,6.7-5.2,11.3
		c1.7,4.5,6.7,6.9,11.3,5.2C40.5,454.6,58.4,438.6,58.4,438.6L58.4,438.6z"/>
	<path fill-rule="evenodd" clip-rule="evenodd" fill="#CED0FE" d="M108.4,146.1c0-4.4,3.6-8,8-8h89.4c4.4,0,8,3.6,8,8v16
		c0,4.4-3.6,8-8,8h-26.3l13.2,13.7l-29-13.7h-47.3c-4.4,0-8-3.6-8-8V146.1L108.4,146.1z"/>
	<path fill-rule="evenodd" clip-rule="evenodd" fill="#FFFFFF" d="M193.9,148.9c-2.1,0-3.8,1.7-3.8,3.8c0,2.1,1.7,3.8,3.8,3.8
		c2.1,0,3.8-1.7,3.8-3.8C197.6,150.6,196,148.9,193.9,148.9L193.9,148.9z"/>
	<path fill-rule="evenodd" clip-rule="evenodd" fill="#FFFFFF" d="M180.8,148.9c-2.1,0-3.8,1.7-3.8,3.8c0,2.1,1.7,3.8,3.8,3.8
		c2.1,0,3.8-1.7,3.8-3.8C184.5,150.6,182.8,148.9,180.8,148.9L180.8,148.9z"/>
	<path fill-rule="evenodd" clip-rule="evenodd" fill="#FFFFFF" d="M166.8,148.9c-2.1,0-3.8,1.7-3.8,3.8c0,2.1,1.7,3.8,3.8,3.8
		c2.1,0,3.8-1.7,3.8-3.8C170.6,150.6,168.9,148.9,166.8,148.9L166.8,148.9z"/>
	<path fill-rule="evenodd" clip-rule="evenodd" fill="#FFFFFF" d="M153.3,148.9c-2.1,0-3.8,1.7-3.8,3.8c0,2.1,1.7,3.8,3.8,3.8
		c2.1,0,3.8-1.7,3.8-3.8C157.1,150.6,155.4,148.9,153.3,148.9L153.3,148.9z"/>
	<path fill-rule="evenodd" clip-rule="evenodd" fill="#FFFFFF" d="M140.8,148.9c-2.1,0-3.8,1.7-3.8,3.8c0,2.1,1.7,3.8,3.8,3.8
		c2.1,0,3.8-1.7,3.8-3.8C144.6,150.6,142.9,148.9,140.8,148.9L140.8,148.9z"/>
	<path fill-rule="evenodd" clip-rule="evenodd" fill="#FFFFFF" d="M128.3,148.9c-2.1,0-3.8,1.7-3.8,3.8c0,2.1,1.7,3.8,3.8,3.8
		c2.1,0,3.8-1.7,3.8-3.8C132,150.6,130.4,148.9,128.3,148.9L128.3,148.9z"/>
	<path fill-rule="evenodd" clip-rule="evenodd" fill="#FAA5B4" d="M53.9,227.4c0,0-14.8,45.8,36.7,131.4l29.1,21.7
		C119.8,380.5,124.9,284.7,53.9,227.4L53.9,227.4z"/>
	<g>
		<defs>
			<path id="SVGID_1_" d="M53.9,227.4c0,0-14.8,45.8,36.7,131.4l29.1,21.7C119.8,380.5,124.9,284.7,53.9,227.4L53.9,227.4z"/>
		</defs>
		<clipPath id="SVGID_2_">
			<use xlink:href="#SVGID_1_"  overflow="visible"/>
		</clipPath>
		<path clip-path="url(#SVGID_2_)" fill-rule="evenodd" clip-rule="evenodd" fill="#FFFFFF" d="M124.7,400.4
			c0,0-52.1-112.7-64.4-157C60.3,243.4,110.5,367.1,124.7,400.4L124.7,400.4z"/>
	</g>
	<path fill-rule="evenodd" clip-rule="evenodd" fill="#FF8EA2" d="M125.9,279c0,0-46,33-8.1,102.4
		C117.7,381.3,161.7,367.2,125.9,279L125.9,279z"/>
	<g>
		<defs>
			<path id="SVGID_3_" d="M125.9,279c0,0-46,33-8.1,102.4C117.7,381.3,161.7,367.2,125.9,279L125.9,279z"/>
		</defs>
		<clipPath id="SVGID_4_">
			<use xlink:href="#SVGID_3_"  overflow="visible"/>
		</clipPath>
		<path clip-path="url(#SVGID_4_)" fill-rule="evenodd" clip-rule="evenodd" fill="#FFFFFF" d="M126.3,280c0,0-10.5,65.3-4.3,105.8
			C122,385.8,118.2,342.9,126.3,280L126.3,280z"/>
	</g>
	<path fill-rule="evenodd" clip-rule="evenodd" fill="#FF3F67" d="M41.6,310.3c0,0,2.4,49.1,53.5,80.4L123,398
		C123,398,109.5,329.3,41.6,310.3L41.6,310.3z"/>
	<g>
		<defs>
			<path id="SVGID_5_" d="M41.6,310.3c0,0,2.4,49.1,53.5,80.4L123,398C123,398,109.5,329.3,41.6,310.3L41.6,310.3z"/>
		</defs>
		<clipPath id="SVGID_6_">
			<use xlink:href="#SVGID_5_"  overflow="visible"/>
		</clipPath>
		<path clip-path="url(#SVGID_6_)" fill-rule="evenodd" clip-rule="evenodd" fill="#FFFFFF" d="M45.6,312.3
			c0,0,39.7,79.6,107.7,93.5C153.3,405.8,96.9,397.6,45.6,312.3L45.6,312.3z"/>
	</g>
	<path fill-rule="evenodd" clip-rule="evenodd" fill="#FAA5B4" d="M54.6,375.2c0,0,20.1,63.5,79.7,45.3c0,0,35.6-36.5,14.6-85.9
		c0.3-0.4-38.1,21.7-32.1,56.1C116.8,390.7,101,372.1,54.6,375.2L54.6,375.2z"/>
	<g>
		<defs>
			<path id="SVGID_7_" d="M54.6,375.2c0,0,20.1,63.5,79.7,45.3c0,0,35.6-36.5,14.6-85.9c0.3-0.4-38.1,21.7-32.1,56.1
				C116.8,390.7,101,372.1,54.6,375.2L54.6,375.2z"/>
		</defs>
		<clipPath id="SVGID_8_">
			<use xlink:href="#SVGID_7_"  overflow="visible"/>
		</clipPath>
		<path clip-path="url(#SVGID_8_)" fill-rule="evenodd" clip-rule="evenodd" fill="#FFFFFF" d="M146.7,344.9
			c0,0-18.7,41.3-18.5,65.8C128.2,410.7,127.7,395.3,146.7,344.9L146.7,344.9z"/>
		<path clip-path="url(#SVGID_8_)" fill-rule="evenodd" clip-rule="evenodd" fill="#FFFFFF" d="M54,374c0,0,45.4,45.2,74.3,36.7
			C128.2,410.7,109.4,421.4,54,374L54,374z"/>
	</g>
	<path fill-rule="evenodd" clip-rule="evenodd" fill="#FF8EA2" d="M66.9,399.3c0,0,21.5,45.6,74.2,41
		C141.1,440.3,142,387.1,66.9,399.3L66.9,399.3z"/>
	<g>
		<defs>
			<path id="SVGID_9_" d="M66.9,399.3c0,0,21.5,45.6,74.2,41C141.1,440.3,142,387.1,66.9,399.3L66.9,399.3z"/>
		</defs>
		<clipPath id="SVGID_10_">
			<use xlink:href="#SVGID_9_"  overflow="visible"/>
		</clipPath>
		<path clip-path="url(#SVGID_10_)" fill-rule="evenodd" clip-rule="evenodd" fill="#FFFFFF" d="M75.5,402.7c0,0,46,31.6,72.3,22.5
			C147.8,425.2,127.5,433.6,75.5,402.7L75.5,402.7z"/>
	</g>
	<path fill-rule="evenodd" clip-rule="evenodd" fill="#FF3F67" d="M151.3,370.3c0,0-43.7,38.7-11.7,66.1
		C139.6,436.5,176.1,424.7,151.3,370.3L151.3,370.3z"/>
	<g>
		<defs>
			<path id="SVGID_11_" d="M151.3,370.3c0,0-43.7,38.7-11.7,66.1C139.6,436.5,176.1,424.7,151.3,370.3L151.3,370.3z"/>
		</defs>
		<clipPath id="SVGID_12_">
			<use xlink:href="#SVGID_11_"  overflow="visible"/>
		</clipPath>
		<path clip-path="url(#SVGID_12_)" fill-rule="evenodd" clip-rule="evenodd" fill="#FFFFFF" d="M151.2,371.3
			c0,0-0.8,44.6-17.1,70.8C134.2,442.2,147.4,419.1,151.2,371.3L151.2,371.3z"/>
	</g>
	<path fill-rule="evenodd" clip-rule="evenodd" fill="#FF3F67" d="M111.8,429.9c0,0,5.1,23.1,27.3,16.4
		C139.1,446.3,149.7,421,111.8,429.9L111.8,429.9z"/>
	<g>
		<defs>
			<path id="SVGID_13_" d="M111.8,429.9c0,0,5.1,23.1,27.3,16.4C139.1,446.3,149.7,421,111.8,429.9L111.8,429.9z"/>
		</defs>
		<clipPath id="SVGID_14_">
			<use xlink:href="#SVGID_13_"  overflow="visible"/>
		</clipPath>
		<path clip-path="url(#SVGID_14_)" fill-rule="evenodd" clip-rule="evenodd" fill="#FFFFFF" d="M145.7,444c0,0-24.5,3.2-38.4-19.9
			C107.3,424.1,116,441.9,145.7,444L145.7,444z"/>
	</g>
	<path fill-rule="evenodd" clip-rule="evenodd" fill="#FF8EA2" d="M153.8,411.9c0,0-20.7,6.5-15.6,34.2
		C138.2,446,164.6,444.7,153.8,411.9L153.8,411.9z"/>
	<g>
		<defs>
			<path id="SVGID_15_" d="M153.8,411.9c0,0-20.7,6.5-15.6,34.2C138.2,446,164.6,444.7,153.8,411.9L153.8,411.9z"/>
		</defs>
		<clipPath id="SVGID_16_">
			<use xlink:href="#SVGID_15_"  overflow="visible"/>
		</clipPath>
		<path clip-path="url(#SVGID_16_)" fill-rule="evenodd" clip-rule="evenodd" fill="#FFFFFF" d="M134.8,448.5
			c0,0,19.2-8.1,17.5-35.4C152.3,413.1,153,436.3,134.8,448.5L134.8,448.5z"/>
	</g>
	<path fill-rule="evenodd" clip-rule="evenodd" fill="#E2E3FE" d="M122.3,436.2c0,0,13.4,44.4,374.3,11.4c0,0,85.8-12.1,46.3-98.7
		c0,0-94.7-14.1-47.8-44.2c0,0,171.5-137.6-82.3-105.1c0,0-125.1-138.1-174.3-29.3c0,0-27,71.9-90.1,20.5c0,0-64.9-49.7-33.9,72.7
		l17.7,128.7L122.3,436.2L122.3,436.2z"/>
	<path fill-rule="evenodd" clip-rule="evenodd" fill="#EAEBFF" d="M129.2,430.4c0,0-96.9-181.4,61.3-190.5c0,0,91.9,19.8,155.3-73.7
		c0,0,93.9-148.2,208.2,48.8c0,0,50.2,133.9-79.2,235.1c0,0-119.6,33.1-197.9,10.2C276.9,460.4,188.4,483.9,129.2,430.4L129.2,430.4
		z"/>
	<path fill-rule="evenodd" clip-rule="evenodd" fill="#F8F8FF" d="M507.7,212.9c0-2.3-1.9-4.1-4.1-4.1H155.3c-2.3,0-4.1,1.9-4.1,4.1
		v235.6c0,2.3,1.9,4.1,4.1,4.1h348.3c2.3,0,4.1-1.9,4.1-4.1V212.9L507.7,212.9z"/>
	<g>
		<defs>
			<path id="SVGID_17_" d="M507.7,212.9c0-2.3-1.9-4.1-4.1-4.1H155.3c-2.3,0-4.1,1.9-4.1,4.1v235.6c0,2.3,1.9,4.1,4.1,4.1h348.3
				c2.3,0,4.1-1.9,4.1-4.1V212.9L507.7,212.9z"/>
		</defs>
		<clipPath id="SVGID_18_">
			<use xlink:href="#SVGID_17_"  overflow="visible"/>
		</clipPath>
		<polygon clip-path="url(#SVGID_18_)" fill-rule="evenodd" clip-rule="evenodd" fill="#B1B2FF" points="532,178.1 102.1,178.1 
			102.1,231.7 532,231.7 532,178.1 		"/>
		<path clip-path="url(#SVGID_18_)" fill-rule="evenodd" clip-rule="evenodd" fill="#FFFFFF" d="M493.3,255c0-0.8-0.7-1.5-1.5-1.5
			h-160c-0.8,0-1.5,0.7-1.5,1.5v71.5c0,0.8,0.7,1.5,1.5,1.5h160c0.8,0,1.5-0.7,1.5-1.5V255L493.3,255z"/>
		<polygon clip-path="url(#SVGID_18_)" fill-rule="evenodd" clip-rule="evenodd" fill="#E2E3FE" points="487.4,274.2 405.9,274.2 
			405.9,276.3 487.4,276.3 487.4,274.2 		"/>
		<polygon clip-path="url(#SVGID_18_)" fill-rule="evenodd" clip-rule="evenodd" fill="#E2E3FE" points="487.4,281.8 405.9,281.8 
			405.9,283.9 487.4,283.9 487.4,281.8 		"/>
		<polygon clip-path="url(#SVGID_18_)" fill-rule="evenodd" clip-rule="evenodd" fill="#E2E3FE" points="487.4,289.4 405.9,289.4 
			405.9,291.4 487.4,291.4 487.4,289.4 		"/>
		<polygon clip-path="url(#SVGID_18_)" fill-rule="evenodd" clip-rule="evenodd" fill="#E2E3FE" points="487.4,297.3 405.9,297.3 
			405.9,299.3 487.4,299.3 487.4,297.3 		"/>
		<polygon clip-path="url(#SVGID_18_)" fill-rule="evenodd" clip-rule="evenodd" fill="#E2E3FE" points="487.4,305.3 405.9,305.3 
			405.9,307.3 487.4,307.3 487.4,305.3 		"/>
		<path clip-path="url(#SVGID_18_)" fill-rule="evenodd" clip-rule="evenodd" fill="#8682F8" d="M369.1,261.2
			c16.1,0,29.2,13.1,29.2,29.2c0,16.1-13.1,29.2-29.2,29.2c-16.1,0-29.2-13.1-29.2-29.2C339.9,274.3,353,261.2,369.1,261.2
			L369.1,261.2z"/>
	</g>
	<g>
		<defs>
			<path id="SVGID_19_" d="M369.1,261.2c16.1,0,29.2,13.1,29.2,29.2c0,16.1-13.1,29.2-29.2,29.2c-16.1,0-29.2-13.1-29.2-29.2
				C339.9,274.3,353,261.2,369.1,261.2L369.1,261.2z"/>
		</defs>
		<defs>
			<path id="SVGID_20_" d="M507.7,212.9c0-2.3-1.9-4.1-4.1-4.1H155.3c-2.3,0-4.1,1.9-4.1,4.1v235.6c0,2.3,1.9,4.1,4.1,4.1h348.3
				c2.3,0,4.1-1.9,4.1-4.1V212.9L507.7,212.9z"/>
		</defs>
		<clipPath id="SVGID_21_">
			<use xlink:href="#SVGID_19_"  overflow="visible"/>
		</clipPath>
		<clipPath id="SVGID_22_" clip-path="url(#SVGID_21_)">
			<use xlink:href="#SVGID_20_"  overflow="visible"/>
		</clipPath>
		<polygon clip-path="url(#SVGID_22_)" fill-rule="evenodd" clip-rule="evenodd" fill="#B1B2FF" points="369.1,290.8 330.4,290.8 
			339.9,253.6 369.1,253.6 369.1,290.8 		"/>
	</g>
	<g>
		<defs>
			<path id="SVGID_23_" d="M507.7,212.9c0-2.3-1.9-4.1-4.1-4.1H155.3c-2.3,0-4.1,1.9-4.1,4.1v235.6c0,2.3,1.9,4.1,4.1,4.1h348.3
				c2.3,0,4.1-1.9,4.1-4.1V212.9L507.7,212.9z"/>
		</defs>
		<clipPath id="SVGID_24_">
			<use xlink:href="#SVGID_23_"  overflow="visible"/>
		</clipPath>
		<path clip-path="url(#SVGID_24_)" fill-rule="evenodd" clip-rule="evenodd" fill="#FFFFFF" d="M493.3,356.1c0-0.8-0.7-1.5-1.5-1.5
			h-160c-0.8,0-1.5,0.7-1.5,1.5v71.5c0,0.8,0.7,1.5,1.5,1.5h160c0.8,0,1.5-0.7,1.5-1.5V356.1L493.3,356.1z"/>
		<path clip-path="url(#SVGID_24_)" fill-rule="evenodd" clip-rule="evenodd" fill="#B1B2FF" d="M353.4,401.9c0,0,20-31.1,42.1-10.7
			c0,0,28.3,33.8,60.8,0c0,0,14.9-9.3,20.7,33.2l-125.6,0.6L353.4,401.9L353.4,401.9z"/>
		<path clip-path="url(#SVGID_24_)" fill-rule="evenodd" clip-rule="evenodd" fill="#E2E3FE" d="M346.1,423.7c0,0,7.2-61.2,37.1-19
			c0,0,14.8,17.9,18.1,0c0,0,22.7-53.7,59.6,0c0,0,8.6,12.1,8.7,20.4L346.1,423.7L346.1,423.7z"/>
		<path clip-path="url(#SVGID_24_)" fill-rule="evenodd" clip-rule="evenodd" fill="#E2E3FE" d="M346.1,423.7c0,0,7.2-61.2,37.1-19
			c0,0,14.8,17.9,18.1,0c0,0,22.7-53.7,59.6,0c0,0,8.6,12.1,8.7,20.4L346.1,423.7L346.1,423.7z"/>
		<polygon clip-path="url(#SVGID_24_)" fill-rule="evenodd" clip-rule="evenodd" fill="#B1B2FF" points="480.9,423.7 345,423.7 
			345,425.8 480.9,425.8 480.9,423.7 		"/>
		<polygon clip-path="url(#SVGID_24_)" fill-rule="evenodd" clip-rule="evenodd" fill="#B1B2FF" points="347.1,356.7 345,356.7 
			345,425.1 347.1,425.1 347.1,356.7 		"/>
		<path clip-path="url(#SVGID_24_)" fill-rule="evenodd" clip-rule="evenodd" fill="#FDFBF6" d="M451.3,215.5c2.8,0,5.2,2.3,5.2,5.2
			c0,2.8-2.3,5.2-5.2,5.2c-2.8,0-5.2-2.3-5.2-5.2C446.2,217.9,448.5,215.5,451.3,215.5L451.3,215.5z"/>
		<path clip-path="url(#SVGID_24_)" fill-rule="evenodd" clip-rule="evenodd" fill="#FDFBF6" d="M469,215.5c2.8,0,5.2,2.3,5.2,5.2
			c0,2.8-2.3,5.2-5.2,5.2c-2.8,0-5.2-2.3-5.2-5.2C463.8,217.9,466.2,215.5,469,215.5L469,215.5z"/>
		<path clip-path="url(#SVGID_24_)" fill-rule="evenodd" clip-rule="evenodd" fill="#FDFBF6" d="M486.9,215.5c2.8,0,5.2,2.3,5.2,5.2
			c0,2.8-2.3,5.2-5.2,5.2c-2.8,0-5.2-2.3-5.2-5.2C481.7,217.9,484,215.5,486.9,215.5L486.9,215.5z"/>
		<polygon clip-path="url(#SVGID_24_)" fill-rule="evenodd" clip-rule="evenodd" fill="#FFFFFF" points="299.9,253.6 168.6,253.6 
			168.6,429.2 299.9,429.2 299.9,253.6 		"/>
		<path clip-path="url(#SVGID_24_)" fill-rule="evenodd" clip-rule="evenodd" fill="#B1B2FF" d="M293.3,265.5c0-1.9-1.5-3.4-3.4-3.4
			h-111c-1.9,0-3.4,1.5-3.4,3.4c0,1.9,1.5,3.4,3.4,3.4h111C291.8,268.9,293.3,267.4,293.3,265.5L293.3,265.5z"/>
		<path clip-path="url(#SVGID_24_)" fill-rule="evenodd" clip-rule="evenodd" fill="#B1B2FF" d="M293.3,320.6c0-1.9-1.5-3.4-3.4-3.4
			h-111c-1.9,0-3.4,1.5-3.4,3.4c0,1.9,1.5,3.4,3.4,3.4h111C291.8,324,293.3,322.4,293.3,320.6L293.3,320.6z"/>
		<path clip-path="url(#SVGID_24_)" fill-rule="evenodd" clip-rule="evenodd" fill="#B1B2FF" d="M293.3,390c0-1.9-1.5-3.4-3.4-3.4
			h-111c-1.9,0-3.4,1.5-3.4,3.4c0,1.9,1.5,3.4,3.4,3.4h111C291.8,393.4,293.3,391.9,293.3,390L293.3,390z"/>
		<path clip-path="url(#SVGID_24_)" fill-rule="evenodd" clip-rule="evenodd" fill="#B1B2FF" d="M293.3,279c0-1.9-1.5-3.4-3.4-3.4
			h-111c-1.9,0-3.4,1.5-3.4,3.4c0,1.9,1.5,3.4,3.4,3.4h111C291.8,282.4,293.3,280.9,293.3,279L293.3,279z"/>
		<path clip-path="url(#SVGID_24_)" fill-rule="evenodd" clip-rule="evenodd" fill="#B1B2FF" d="M293.3,334.1c0-1.9-1.5-3.4-3.4-3.4
			h-111c-1.9,0-3.4,1.5-3.4,3.4c0,1.9,1.5,3.4,3.4,3.4h111C291.8,337.5,293.3,336,293.3,334.1L293.3,334.1z"/>
		<path clip-path="url(#SVGID_24_)" fill-rule="evenodd" clip-rule="evenodd" fill="#B1B2FF" d="M293.3,403.5c0-1.9-1.5-3.4-3.4-3.4
			h-111c-1.9,0-3.4,1.5-3.4,3.4c0,1.9,1.5,3.4,3.4,3.4h111C291.8,406.9,293.3,405.4,293.3,403.5L293.3,403.5z"/>
		<path clip-path="url(#SVGID_24_)" fill-rule="evenodd" clip-rule="evenodd" fill="#B1B2FF" d="M243.5,293c0-1.9-1.5-3.4-3.4-3.4
			h-61.1c-1.9,0-3.4,1.5-3.4,3.4c0,1.9,1.5,3.4,3.4,3.4h61.1C241.9,296.4,243.5,294.9,243.5,293L243.5,293z"/>
		<path clip-path="url(#SVGID_24_)" fill-rule="evenodd" clip-rule="evenodd" fill="#B1B2FF" d="M243.5,348.1c0-1.9-1.5-3.4-3.4-3.4
			h-61.1c-1.9,0-3.4,1.5-3.4,3.4c0,1.9,1.5,3.4,3.4,3.4h61.1C241.9,351.5,243.5,349.9,243.5,348.1L243.5,348.1z"/>
		<path clip-path="url(#SVGID_24_)" fill-rule="evenodd" clip-rule="evenodd" fill="#B1B2FF" d="M243.5,417.5c0-1.9-1.5-3.4-3.4-3.4
			h-61.1c-1.9,0-3.4,1.5-3.4,3.4c0,1.9,1.5,3.4,3.4,3.4h61.1C241.9,420.9,243.5,419.4,243.5,417.5L243.5,417.5z"/>
	</g>
	<polygon fill-rule="evenodd" clip-rule="evenodd" fill="#E2E3FE" points="565,108.6 421.7,108.6 421.7,164.4 565,164.4 565,108.6 	
		"/>
	<polygon fill-rule="evenodd" clip-rule="evenodd" fill="#E2E3FE" points="483.5,161.2 471.5,172.1 467.4,162 483.5,161.2 	"/>
	<polygon fill-rule="evenodd" clip-rule="evenodd" fill="#B1B2FF" points="560.5,113.3 428.8,113.3 428.8,158.6 560.5,158.6 
		560.5,113.3 	"/>
	<path fill-rule="evenodd" clip-rule="evenodd" fill="#FFFFFF" d="M448.9,125.5c5.1,0,9.3,4.2,9.3,9.3c0,5.1-4.2,9.3-9.3,9.3
		c-5.1,0-9.3-4.2-9.3-9.3C439.6,129.7,443.8,125.5,448.9,125.5L448.9,125.5z"/>
	<polygon fill-rule="evenodd" clip-rule="evenodd" fill="#FFFFFF" points="548.7,125.5 465.5,125.5 465.5,129.8 548.7,129.8 
		548.7,125.5 	"/>
	<polygon fill-rule="evenodd" clip-rule="evenodd" fill="#FFFFFF" points="511.2,136 465.5,136 465.5,144.1 511.2,144.1 511.2,136 	
		"/>
	<polygon fill-rule="evenodd" clip-rule="evenodd" fill="#FED64E" points="548.7,144.1 524.8,144.1 524.8,150.1 548.7,150.1 
		548.7,144.1 	"/>
	<path fill-rule="evenodd" clip-rule="evenodd" fill="#E2E3FE" d="M198.8,189c0,0-9,5.8-9,8.3c0,4.6,4,8.3,9,8.3s9-3.7,9-8.3
		C207.8,194.8,198.8,189,198.8,189L198.8,189z"/>
	<path fill-rule="evenodd" clip-rule="evenodd" fill="#E2E3FE" d="M572.5,351.4c0,0-8.5,21-8.5,30c0,4.7,3.8,8.5,8.5,8.5
		c4.7,0,8.5-3.8,8.5-8.5C581,372.3,572.5,351.4,572.5,351.4L572.5,351.4z"/>
	<path fill-rule="evenodd" clip-rule="evenodd" fill="#E2E3FE" d="M294.4,480c0,0-28.1,3.7-28.1,5.3c0,2.9,12.6,5.3,28.1,5.3
		c15.5,0,28.1-2.4,28.1-5.3C322.5,483.7,294.4,480,294.4,480L294.4,480z"/>
</g>
</svg>
